<?xml version="1.0" encoding="UTF-8"?><svg id="a" xmlns="http://www.w3.org/2000/svg" width="16" height="16" viewBox="0 0 16 16"><rect x="0" y="0" width="16" height="16" rx="1.51" ry="1.51" fill="#000" stroke-width="0"/><path d="M9.19,10.83c-.23.14-.46.28-.7.41-.09.05-.14.1-.13.21.01.18,0,.35,0,.56,1.35-.78,2.67-1.54,4.02-2.32,0,.28,0,.54,0,.8,0,.06-.04.08-.08.1-.88.51-1.76,1.01-2.64,1.52-.52.3-1.04.6-1.56.9-.08.04-.13.06-.2,0-.03-.03-.07-.04-.11-.06-.14-.05-.17-.15-.17-.3,0-1.43,0-2.85,0-4.28,0-.12-.02-.19-.13-.24-.12-.05-.23-.12-.33-.19-.12-.08-.14-.04-.14.09,0,1.16,0,2.32,0,3.48,0,.32,0,.65,0,1-.24-.14-.46-.27-.68-.39-.08-.04-.05-.11-.05-.17,0-1.45,0-2.89,0-4.34,0-.12-.03-.19-.15-.25-.15-.07-.3-.17-.46-.26v4.64c-.25-.15-.48-.29-.71-.42-.02-.03-.01-.07-.01-.1,0-1.49,0-2.97,0-4.46,0-.07-.01-.12-.08-.14-.06-.02-.11-.06-.17-.08-.12-.06-.23-.12-.35-.19-.03.06-.02.13-.02.19,0,1.42,0,2.84,0,4.26,0,.16,0,.16-.14.08-.17-.1-.34-.2-.52-.3-.06-.03-.08-.07-.08-.15,0-1.62,0-3.24,0-4.86,0-.08.03-.11.09-.16.19-.15.34-.14.55-.01,1.21.72,2.44,1.42,3.66,2.12.04.03.08.05.14.02.18-.11.36-.21.56-.33-1.34-.78-2.67-1.54-4.01-2.32.24-.14.47-.27.69-.4.05-.03.08,0,.12.02.54.31,1.09.63,1.63.94.74.43,1.48.85,2.22,1.28.06.04.11.05.18,0,.16-.1.33-.19.52-.3-.37-.22-.73-.42-1.09-.63-.8-.46-1.61-.93-2.41-1.39-.02-.01-.04-.03-.06-.05-.05-.04-.1-.08-.16-.09-.02,0-.05,0-.05-.03-.04-.05-.11-.06-.16-.09-.05-.01-.09-.03-.02-.07.21-.12.42-.24.63-.37.06-.04.1.01.14.03,1.27.73,2.54,1.47,3.81,2.2.08.05.14.05.22,0,.15-.1.31-.18.47-.28-.91-.53-1.81-1.05-2.71-1.58-.02-.05-.08-.05-.12-.07h0s-.1-.08-.16-.09c-.34-.19-.68-.38-1.04-.58.24-.14.46-.27.68-.39.06-.04.1,0,.15.02,1.29.75,2.59,1.49,3.88,2.24.06.04.12.08.19.11.21.07.25.21.23.41,0,.11-.04.17-.13.22-1.25.72-2.5,1.44-3.75,2.16-.1.06-.16.12-.14.25.01.13,0,.26,0,.38,0,.11,0,.15.13.08.87-.51,1.74-1.01,2.61-1.51.41-.23.81-.47,1.22-.7.02-.01.03-.02.07,0,0,.25,0,.51,0,.77,0,.07-.07.09-.11.11-.44.25-.88.5-1.32.75-.82.48-1.65.96-2.47,1.43-.09.05-.13.11-.12.22,0,.17,0,.35,0,.55,1.34-.77,2.67-1.54,4.02-2.32,0,.21-.02.4,0,.59.02.2-.06.31-.23.4-.57.31-1.13.65-1.7.97-.09.05-.17.09-.26.14-.05.03-.11.05-.16.09-.15.11-.31.19-.48.28-.07.03-.15.05-.2.12h0c-.07.02-.13.05-.18.1Z" fill="#fff" stroke-width="0"/></svg>